<svg xmlns="http://www.w3.org/2000/svg" width="25" height="31.03" viewBox="0 0 25 31.03"><defs><style>.a{fill:#424a60;}.b{fill:#fff;}.c{fill:#ffd7ba;}.d{fill:#903e0d;}</style></defs><title>icon-user</title><path class="a" d="M2.5,31A2.55,2.55,0,0,1,0,28.43V22.91C0,20.16,4.72,18,12.5,18S25,20.16,25,22.91v5.52A2.55,2.55,0,0,1,22.5,31Z"/><path class="b" d="M10,18h4l-2,5Z"/><path class="c" d="M12,15c-3.32,0-6-3.5-6-9s2.69-4.19,6-4.19S18,.53,18,6,15.33,15,12,15Z"/><path class="d" d="M18,4.61C16.75-2.05,8.94.51,8.94.51a1,1,0,0,0-.72.64c-4.4,1.28-2,7.44-2,6.87A3.83,3.83,0,0,1,8.6,3.48s3.62,1.63,6.8-.13c1,0,2.31,1.87,2.54,4.21A9.07,9.07,0,0,0,18,4.61Z"/></svg>