<svg xmlns="http://www.w3.org/2000/svg" width="26" height="34" viewBox="0 0 26 34"><defs><style>.a{fill:#fafafa;stroke:#d0d3da;}.b{fill:#d0d3da;}</style></defs><title>icon-doc2</title><path class="a" d="M19.5.5v4a2,2,0,0,0,2,2h4v25a2,2,0,0,1-2,2H2.5a2,2,0,0,1-2-2V2.5a2,2,0,0,1,2-2Z"/><path class="b" d="M20,0l6,6H20Z"/><path class="b" d="M10.86,9h4.29A.94.94,0,0,1,16,10v3a.94.94,0,0,1-.86,1H10.86A.94.94,0,0,1,10,13V10A.94.94,0,0,1,10.86,9ZM6.5,18h13a1,1,0,0,1,1,1h0a1,1,0,0,1-1,1H6.5a1,1,0,0,1-1-1h0A1,1,0,0,1,6.5,18Zm0,5h2a1,1,0,0,1,0,2h-2a1,1,0,0,1,0-2Zm11,0h2a1,1,0,0,1,0,2h-2a1,1,0,0,1,0-2Z"/></svg>