<svg xmlns="http://www.w3.org/2000/svg" width="26" height="24.13" viewBox="0 0 26 24.13"><defs><style>.a{fill:none;stroke:#fff;stroke-width:2px;}.b{fill:#fff;}</style></defs><title>skype</title><path class="a" d="M19.18,3.43a10.65,10.65,0,0,1,4.44,8.64,10.91,10.91,0,0,1-.11,1.51.42.42,0,0,0,.1.32,5.57,5.57,0,0,1-7.18,8.37.39.39,0,0,0-.33,0A10.63,10.63,0,0,1,2.38,12.06a11,11,0,0,1,.1-1.51.38.38,0,0,0-.09-.32A5.57,5.57,0,0,1,9.57,1.86a.39.39,0,0,0,.33,0,10.65,10.65,0,0,1,8,.76Z"/><path class="b" d="M11,12.88a7.51,7.51,0,0,1-1.5-.75A3.23,3.23,0,0,1,8,9.34,3.48,3.48,0,0,1,9.31,6.57a5.31,5.31,0,0,1,3.37-1,7,7,0,0,1,3.43,1,1.26,1.26,0,0,1,.52.82,1.2,1.2,0,0,1-.24.93,1.33,1.33,0,0,1-1.81.27A4.56,4.56,0,0,0,12.68,8c-1,0-2.1.22-2.1,1.29,0,.64.62,1,2.34,1.54A10.47,10.47,0,0,1,15.44,12,3.25,3.25,0,0,1,17,14.78a3.53,3.53,0,0,1-1.2,2.75,4.63,4.63,0,0,1-3.1,1A5.79,5.79,0,0,1,8.37,16.8a1.22,1.22,0,0,1,.21-1.71l0,0a1.33,1.33,0,0,1,1-.23,1.28,1.28,0,0,1,.85.49,3.41,3.41,0,0,0,2.24.77,2.53,2.53,0,0,0,1.1-.22,1.09,1.09,0,0,0,.62-1.07c0-.59-.46-.9-2.22-1.5Z"/></svg>