<svg xmlns="http://www.w3.org/2000/svg" xmlns:xlink="http://www.w3.org/1999/xlink" width="43" height="44" viewBox="0 0 43 44"><defs><path id="a" d="M2864 16c0-1.1.9-2 2-2h36a2 2 0 0 1 2 2v36a2 2 0 0 1-2 2h-36a2 2 0 0 1-2-2z"/><path id="b" d="M2884 42c-3.94 0-7.11-4.2-7.11-10.8 0-6.6 3.17-7.2 7.1-7.2 3.94 0 7.11.6 7.11 7.2 0 6.6-3.17 10.8-7.1 10.8zm-15 12v-3.3c0-3.14 5.66-5.57 15-5.57 9.33 0 15 2.43 15 5.58V54z"/></defs><g transform="translate(-2862 -12)"><use fill="#e1e2e9" xlink:href="#a"/></g><g transform="translate(-2862 -12)"><use fill="#fff" xlink:href="#b"/></g></svg>