<svg xmlns="http://www.w3.org/2000/svg" width="25.03" height="33" viewBox="0 0 25.03 33"><defs><style>.a{fill:#fff;}.b{fill:none;stroke:#aeb2bb;stroke-width:2px;}</style></defs><title>icon-notification</title><circle class="a" cx="12.53" cy="30.5" r="2.5"/><path class="b" d="M13.92,23a1.45,1.45,0,0,1,.11.51,1.5,1.5,0,0,1-3,0,1.44,1.44,0,0,1,.1-.51C5,23,.62,23,1,21.11a2,2,0,0,1,.56-.95,6.18,6.18,0,0,0,1.56-2.57c.38-1.4.75-2.93,1.06-3.93.55-1.74,1.07-3.38,1.68-4.88C7,6,8.85,3.93,11,3.26V2.33a1.5,1.5,0,0,1,3,0v.93c2.18.67,4,2.72,5.13,5.52.61,1.5,1.13,3.15,1.68,4.88.31,1,.68,2.53,1.06,3.93a6.29,6.29,0,0,0,1.56,2.57,2,2,0,0,1,.56.95C24.43,23,20.08,23,13.92,23Z"/></svg>