<?xml version="1.0"?>
<!--Icons from directory ""-->
<svg xmlns="http://www.w3.org/2000/svg" width="43" height="401" viewBox="0 0 43 401"><svg width="7" viewBox="0 0 7 12" height="12" id="icon-arrow-menu" y="0"><defs><style>.a{fill:none;stroke:#f3c216;stroke-linecap:round;stroke-linejoin:round;stroke-width:2px;}</style></defs><title>icon-arrow-menu</title><path class="a" d="m1 1 5 5-5 5"/></svg><svg width="18" viewBox="0 0 18 18" height="18" id="icon-atom" y="12"><defs><style>.a,.b{fill:none;stroke:#fff;stroke-miterlimit:10;stroke-width:2px;}.a{fill-rule:evenodd;}</style></defs><title>icon-atom</title><path class="a" d="m1.41 1.41c1.4-1.4 5.93 0.87 10.12 5.06s6.47 8.73 5.06 10.12-5.93-0.87-10.12-5.06-6.47-8.73-5.06-10.12z"/><ellipse rx="10.74" transform="translate(-3.73 9) rotate(-45)" ry="3.58" cy="9" cx="9" class="b"/></svg><svg width="20" viewBox="0 0 20 18" height="18" id="icon-chart" y="30"><defs><style>.a{fill:none;stroke:#fff;stroke-linecap:round;stroke-linejoin:round;stroke-width:2px;}</style></defs><title>icon-chart</title><path class="a" d="m15 17v-15a1 1 0 0 1 1 -1h2a1 1 0 0 1 1 1v15"/><path class="a" d="m8 17v-10a1 1 0 0 1 1 -1h2a1 1 0 0 1 1 1v10"/><path class="a" d="m1 17v-4a1 1 0 0 1 1 -1h2a1 1 0 0 1 1 1v4"/></svg><svg width="20" viewBox="0 0 20 25" height="25" id="icon-consultant" y="48"><defs><style>.a{fill:none;stroke:#fff;stroke-width:2px;}</style></defs><title>icon-consultant</title><path class="a" d="m10 11c2.76 0 4-3.24 4-6s-1.24-4-4-4-4 1.24-4 4 1.24 6 4 6z"/><path class="a" d="m10 14c-5 0-9 1.34-9 3v5a2 2 0 0 0 2 2h14a2 2 0 0 0 2 -2v-5c0-1.66-4-3-9-3z"/></svg><svg width="24" viewBox="0 0 24 24" height="24" id="icon-email2" y="73"><defs><style>.a{fill:none;stroke:#fff;stroke-linecap:round;stroke-linejoin:round;stroke-width:2px;}</style></defs><title>icon-email2</title><path class="a" d="m12 6a6 6 0 1 1 -6 6 6 6 0 0 1 6 -6zm2.28 16.76a11 11 0 1 1 6.42 -4 51.61 51.61 0 0 0 -3.7 -3.76"/></svg><svg width="10" viewBox="0 0 10 19" height="19" id="icon-facebook" y="97"><defs><style>.a{fill:#aeb2bb;}</style></defs><title>icon-facebook</title><path class="a" d="m0 10.33v-3.33h2.91v-2.57a4.27 4.27 0 0 1 1.25 -3.25 4.48 4.48 0 0 1 3.23 -1.18 18.53 18.53 0 0 1 2.61 0.1v3.05h-1.89a1.5 1.5 0 0 0 -1.66 1.5s0 2.24 0 2.24h3.44l-0.42 3.45h-2.91v8.66h-3.56v-8.67h-3"/></svg><svg width="40" viewBox="0 0 40 40" height="40" id="icon-guest" y="116"><defs><style>.a{fill:#fff;}</style></defs><title>icon-guest</title><path class="a" d="m20 28c-3.94 0-7.11-4.2-7.11-10.79s3.17-7.21 7.11-7.21 7.1 0.6 7.1 7.2-3.17 10.8-7.1 10.8zm-15 12v-3.3c0-3.14 5.66-5.58 15-5.58s15 2.43 15 5.58v3.3z"/></svg><svg xmlns:xlink="http://www.w3.org/1999/xlink" viewBox="0 0 43 44" width="43" height="44" id="icon-guest2" y="156"><defs><path id="icon-guest2-a" d="m2864 16c0-1.1 0.9-2 2-2h36a2 2 0 0 1 2 2v36a2 2 0 0 1 -2 2h-36a2 2 0 0 1 -2 -2z"/><path id="icon-guest2-b" d="m2884 42c-3.94 0-7.11-4.2-7.11-10.8s3.17-7.2 7.1-7.2c3.94 0 7.11 0.6 7.11 7.2s-3.17 10.8-7.1 10.8zm-15 12v-3.3c0-3.14 5.66-5.57 15-5.57 9.33 0 15 2.43 15 5.58v3.29z"/></defs><g transform="translate(-2862 -12)"><use xlink:href="#icon-guest2-a" fill="#e1e2e9"/></g><g transform="translate(-2862 -12)"><use xlink:href="#icon-guest2-b" fill="#fff"/></g></svg><svg width="22" viewBox="0 0 21.63 19.47" height="19" id="icon-home" y="200"><defs><style>.a{fill:none;stroke:#fff;stroke-linecap:round;stroke-linejoin:round;stroke-width:2px;}</style></defs><title>icon-home</title><path class="a" d="m19.22 10.5h-1v6a2 2 0 0 1 -2 2h-3v-5a1 1 0 0 0 -1 -1h-3a1 1 0 0 0 -1 1v5h-3a2 2 0 0 1 -2 -2v-6h-1l8-9z"/></svg><svg width="20" viewBox="0 0 20 14" height="14" id="icon-more" y="219"><defs><style>.a{fill:#fff;}</style></defs><title>icon-more</title><path class="a" d="m6 0h14v2h-14zm-6 6h16v2h-16zm4 6h15v2h-15z"/></svg><svg width="25" viewBox="0 0 25.03 33" height="33" id="icon-notification" y="233"><defs><style>.a{fill:#fff;}.b{fill:none;stroke:#aeb2bb;stroke-width:2px;}</style></defs><title>icon-notification</title><circle cy="30.5" cx="12.53" r="2.5" class="a"/><path class="b" d="m13.92 23a1.45 1.45 0 0 1 0.11 0.51 1.5 1.5 0 0 1 -3 0 1.44 1.44 0 0 1 0.1 -0.51c-6.13 0-10.51 0-10.13-1.89a2 2 0 0 1 0.56 -0.95 6.18 6.18 0 0 0 1.56 -2.57c0.38-1.4 0.75-2.93 1.06-3.93 0.55-1.74 1.07-3.38 1.68-4.88 1.14-2.78 2.99-4.85 5.14-5.52v-0.93a1.5 1.5 0 0 1 3 0v0.93c2.18 0.67 4 2.72 5.13 5.52 0.61 1.5 1.13 3.15 1.68 4.88 0.31 1 0.68 2.53 1.06 3.93a6.29 6.29 0 0 0 1.56 2.57 2 2 0 0 1 0.56 0.95c0.44 1.89-3.91 1.89-10.07 1.89z"/></svg><svg width="19" viewBox="0 0 19.09 19.13" height="19" id="icon-search" y="266"><defs><style>.a{fill:none;stroke:#aeb2bb;stroke-linecap:round;stroke-linejoin:round;stroke-width:2px;}</style></defs><title>icon-search</title><path class="a" d="m10.65 1a7.44 7.44 0 1 1 -7.43 7.44 7.44 7.44 0 0 1 7.43 -7.44zm-5.21 12.65-4.44 4.47"/></svg><svg width="18" viewBox="0 0 18 21" height="21" id="icon-shield" y="285"><defs><style>.a{fill:none;stroke:#fff;stroke-linecap:round;stroke-linejoin:round;stroke-width:2px;}</style></defs><title>icon-shield</title><path class="a" d="m16.93 5a3.1 3.1 0 0 1 -0.43 0 3.5 3.5 0 0 1 -3.5 -3.5 1.21 1.21 0 0 1 0 -0.19 19.91 19.91 0 0 0 -4 -0.31 19.91 19.91 0 0 0 -4 0.31 1.21 1.21 0 0 1 0 0.19 3.5 3.5 0 0 1 -3.5 3.5 3.1 3.1 0 0 1 -0.43 0 8.21 8.21 0 0 0 -0.07 1c0 4.42 3.58 14 8 14s8-9.58 8-14a8.21 8.21 0 0 0 -0.07 -1z"/></svg><svg width="26" viewBox="0 0 26 24.13" height="24" id="icon-skype" y="306"><defs><style>.a{fill:none;stroke:#fff;stroke-width:2px;}.b{fill:#fff;}</style></defs><title>skype</title><path class="a" d="m19.18 3.43a10.65 10.65 0 0 1 4.44 8.64 10.91 10.91 0 0 1 -0.11 1.51 0.42 0.42 0 0 0 0.1 0.32 5.57 5.57 0 0 1 -7.18 8.37 0.39 0.39 0 0 0 -0.33 0 10.63 10.63 0 0 1 -13.72 -10.21 11 11 0 0 1 0.1 -1.51 0.38 0.38 0 0 0 -0.09 -0.32 5.57 5.57 0 0 1 7.18 -8.37 0.39 0.39 0 0 0 0.33 0 10.65 10.65 0 0 1 8 0.76z"/><path class="b" d="m11 12.88a7.51 7.51 0 0 1 -1.5 -0.75 3.23 3.23 0 0 1 -1.5 -2.79 3.48 3.48 0 0 1 1.31 -2.77 5.31 5.31 0 0 1 3.37 -1 7 7 0 0 1 3.43 1 1.26 1.26 0 0 1 0.52 0.82 1.2 1.2 0 0 1 -0.24 0.93 1.33 1.33 0 0 1 -1.81 0.27 4.56 4.56 0 0 0 -1.9 -0.59c-1 0-2.1 0.22-2.1 1.29 0 0.64 0.62 1 2.34 1.54a10.47 10.47 0 0 1 2.52 1.17 3.25 3.25 0 0 1 1.56 2.78 3.53 3.53 0 0 1 -1.2 2.75 4.63 4.63 0 0 1 -3.1 1 5.79 5.79 0 0 1 -4.33 -1.73 1.22 1.22 0 0 1 0.21 -1.71 1.33 1.33 0 0 1 1 -0.23 1.28 1.28 0 0 1 0.85 0.49 3.41 3.41 0 0 0 2.24 0.77 2.53 2.53 0 0 0 1.1 -0.22 1.09 1.09 0 0 0 0.62 -1.07c0-0.59-0.46-0.9-2.22-1.5z"/></svg><svg width="20" viewBox="0 0 19.82 19.78" height="20" id="icon-smth" y="330"><defs><style>.a{fill:none;stroke:#fff;stroke-linecap:round;stroke-linejoin:round;stroke-width:2px;}</style></defs><title>icon-smth</title><path class="a" d="m18.81 8.85s-2.62-3.07-5.21-2.67c0.4-2.61-2.65-5.25-2.65-5.25s-3.73 1.56-4.14 4.14c-2.36-1.2-5.81 0.93-5.81 0.93s0.33 4 2.65 5.22c-1.87 1.85-0.93 5.78-0.93 5.78s3.93 0.94 5.78-0.91c1.19 2.33 5.22 2.66 5.22 2.66s2.1-3.45 0.92-5.78c2.62-0.39 4.17-4.12 4.17-4.12z"/></svg><svg width="21" viewBox="0 0 21 17" height="17" id="icon-twitter" y="350"><defs><style>.a{fill:#aeb2bb;}</style></defs><title>icon-twitter</title><path class="a" d="m0 15.13c0.3 0 0.7 0.1 1 0.1a8.41 8.41 0 0 0 5.33 -1.78 3.89 3.89 0 0 1 -2.51 -0.89 5.07 5.07 0 0 1 -1.52 -2.08c0.3 0 0.6 0.1 0.81 0.1a3.79 3.79 0 0 0 1.1 -0.1 4.35 4.35 0 0 1 -3.52 -4.26v-0.22a4.24 4.24 0 0 0 1.91 0.5 5 5 0 0 1 -1.4 -1.5 6 6 0 0 1 -0.31 -2 4.12 4.12 0 0 1 0.61 -2.12 13.29 13.29 0 0 0 3.92 3.12 12.14 12.14 0 0 0 4.93 1.29 3.33 3.33 0 0 1 -0.1 -1 4.09 4.09 0 0 1 1.3 -3.07 4.22 4.22 0 0 1 3 -1.29 4.12 4.12 0 0 1 3.11 1.39 8 8 0 0 0 2.72 -1 4.46 4.46 0 0 1 -1.91 2.37 8.73 8.73 0 0 0 2.53 -0.62 8.65 8.65 0 0 1 -2.11 2.18v0.59a13.8 13.8 0 0 1 -0.5 3.46 9.76 9.76 0 0 1 -1.51 3.27 13.08 13.08 0 0 1 -2.41 2.77 11.47 11.47 0 0 1 -3.42 2 12.39 12.39 0 0 1 -4.32 0.66 12.11 12.11 0 0 1 -6.73 -1.87"/></svg><svg width="19" viewBox="0 0 19 17" height="17" id="icon-umbrella" y="367"><defs><style>.a{fill:none;stroke:#fff;stroke-linecap:round;stroke-linejoin:round;stroke-width:2px;}</style></defs><title>icon-umbrella</title><path class="a" d="m17.38 13.29c1.45-3.26 0.2-6.52-2.44-9.17-2.67-2.67-5.94-3.93-9.17-2.53-1.58 0.68-2.1 1.63-1.56 1.82a2.37 2.37 0 0 1 0.88 0.59 2.47 2.47 0 0 1 0.6 1c0.17 0.65 0.1 1.31 0.22 1.43s0.79 0.06 1.44 0.23a2.32 2.32 0 0 1 1 0.6 2.28 2.28 0 0 1 0.6 1c0.17 0.65 0.1 1.31 0.23 1.43h0.06c0.21 0.08 0.79 0 1.37 0.19a2.21 2.21 0 0 1 1 0.6 2.27 2.27 0 0 1 0.6 1c0.18 0.65 0.11 1.31 0.23 1.43s0.79 0.06 1.44 0.23a2.32 2.32 0 0 1 1.61 1.52c0.26 0.69 1.19 0.19 1.89-1.37zm-15.77-0.7a2 2 0 0 0 -0.06 2.78 2.08 2.08 0 0 0 2.89 0l5.56-5.37"/></svg><svg width="17" viewBox="0 0 16.94 17.06" height="17" id="icon-youtube" y="384"><defs><style>.a{fill:#aeb2bb;}</style></defs><title>icon-youtube</title><path class="a" d="m16.56 9.35-15.65 7.65a0.63 0.63 0 0 1 -0.9 -0.58v-15.75a0.63 0.63 0 0 1 0.91 -0.58l15.65 8.1a0.65 0.65 0 0 1 0 1.15z"/></svg></svg>
