<svg xmlns="http://www.w3.org/2000/svg" width="23.19" height="23.22" viewBox="0 0 23.19 23.22"><defs><style>.a{fill:#424a60;}</style></defs><title>icon-email</title><path class="a" d="M11.59,15a3.42,3.42,0,1,0-2.41-1,3.29,3.29,0,0,0,2.41,1ZM22.06,6.56A11.17,11.17,0,0,1,23.19,11a11.65,11.65,0,0,1-.63,4.49,12,12,0,0,1-.87,1.89L21,18.51a.21.21,0,0,1-.26.13l-.07,0-4.3-2.54a6.43,6.43,0,0,1-2.47,1.65,6.64,6.64,0,0,1-3.08.39A6.39,6.39,0,0,1,7,16.21a6.31,6.31,0,0,1-1.87-3.9,6.73,6.73,0,0,1,.37-3A6.64,6.64,0,0,1,7,6.91,6.27,6.27,0,0,1,9.5,5.41a6.49,6.49,0,0,1,3-.3A6.34,6.34,0,0,1,16.12,6.9a6.5,6.5,0,0,1,1.78,6.42l1.73,1A8.49,8.49,0,0,0,7.92,3.95,8.36,8.36,0,0,0,4.78,6.52a8.62,8.62,0,0,0-1.6,3.8,8.11,8.11,0,0,0,.2,3.49A8.49,8.49,0,0,0,14.1,19.69a.22.22,0,0,1,.29.12v0l.85,2.5a.22.22,0,0,1-.1.3l0,0a11.53,11.53,0,0,1-3.53.56,11.34,11.34,0,0,1-3.84-.67,11.53,11.53,0,0,1-6.62-5.92A11.72,11.72,0,0,1,0,12.3,11.47,11.47,0,0,1,.62,7.74a11.69,11.69,0,0,1,2.3-3.9A11.82,11.82,0,0,1,6.55,1.11,11.59,11.59,0,0,1,22,6.55h0Z"/></svg>