<svg xmlns="http://www.w3.org/2000/svg" width="22" height="36" viewBox="0 0 22 36"><defs><style>.a{fill:#d0d3da;}.b{fill:#424a60;}.c{fill:#ffc000;}</style></defs><title>icon-mobile2</title><path class="a" d="M2,0H19a2,2,0,0,1,2,2V34a2,2,0,0,1-2,2H2a2,2,0,0,1-2-2V2A2,2,0,0,1,2,0ZM20,5h1a1,1,0,0,1,1,1V9a1,1,0,0,1-1,1H20Z"/><rect class="b" y="3" width="21" height="27"/><path class="b" d="M9,32h3a1,1,0,0,1,1,1h0a1,1,0,0,1-1,1H9a1,1,0,0,1-1-1H8A1,1,0,0,1,9,32Z"/><path class="c" d="M15,24H6a1,1,0,0,1-1-1V21c0-1.66,2.46-3,5.5-3S16,19.34,16,21v2A1,1,0,0,1,15,24Zm-4.5-8A2.5,2.5,0,1,1,13,13.5,2.5,2.5,0,0,1,10.5,16Z"/></svg>