<svg xmlns="http://www.w3.org/2000/svg" xmlns:xlink="http://www.w3.org/1999/xlink" width="33" height="39" viewBox="0 0 33 39"><defs><path id="a" d="M1540 355c0-1.1.9-2 2-2h9a2 2 0 0 1 2 2v9a2 2 0 0 1-2 2h-9a2 2 0 0 1-2-2z"/><path id="b" d="M1543 350.5c0-1.4 1.13-2.53 2.54-2.53h1.93c1.4 0 2.53 1.13 2.53 2.53v2.54h-7z"/><path id="c" d="M1546.5 359a.5.5 0 1 1 0 1 .5.5 0 0 1 0-1z"/></defs><g transform="translate(-1530 -341)"><use fill="#fff" fill-opacity="0" stroke="#4c9d11" stroke-linecap="round" stroke-linejoin="round" stroke-miterlimit="50" stroke-width="2" xlink:href="#a"/></g><g transform="translate(-1530 -341)"><use fill="#fff" fill-opacity="0" stroke="#4c9d11" stroke-linecap="round" stroke-linejoin="round" stroke-miterlimit="50" stroke-width="2" xlink:href="#b"/></g><g transform="translate(-1530 -341)"><use fill="#fff" fill-opacity="0" stroke="#4c9d11" stroke-linecap="round" stroke-linejoin="round" stroke-miterlimit="50" stroke-width="2" xlink:href="#c"/></g></svg>