<svg xmlns="http://www.w3.org/2000/svg" xmlns:xlink="http://www.w3.org/1999/xlink" width="1090" height="140" viewBox="0 0 1090 140"><defs><path id="a" d="M350 448V318h1090v130z"/><path id="d" d="M418 388v-58"/><path id="e" d="M449 345.5L417 332v27z"/><path id="f" d="M1380 388v-58"/><path id="g" d="M1411 345.5l-32-13.5v27z"/><path id="h" d="M438 389h922"/><path id="i" d="M438 381h922"/><path id="j" d="M936 413a4 4 0 1 1 0 8 4 4 0 0 1 0-8z"/><path id="k" d="M773 413a4 4 0 1 1 0 8 4 4 0 0 1 0-8z"/><mask id="c" width="2" height="2" x="-1" y="-1"><path fill="#fff" d="M350 318h1090v130H350z"/><use xlink:href="#a"/></mask><filter id="b" width="1110" height="151" x="340" y="308" filterUnits="userSpaceOnUse"><feOffset dy="1" in="SourceGraphic" result="FeOffset1046Out"/><feGaussianBlur in="FeOffset1046Out" result="FeGaussianBlur1047Out" stdDeviation="0 0"/></filter></defs><g transform="translate(-350 -309)"><g filter="url(#b)"><use fill="none" stroke-width="0" mask="url(&quot;#c&quot;)" xlink:href="#a"/><use fill="#eee" xlink:href="#a"/></g><use fill="#fff" xlink:href="#a"/></g><g transform="translate(-350 -309)"><use fill="#fff" fill-opacity="0" stroke="#aeb2bb" stroke-linecap="round" stroke-miterlimit="50" stroke-width="2" xlink:href="#d"/></g><g transform="translate(-350 -309)"><use fill="#1d6bb2" xlink:href="#e"/></g><g transform="translate(-350 -309)"><use fill="#fff" fill-opacity="0" stroke="#aeb2bb" stroke-linecap="round" stroke-miterlimit="50" stroke-width="2" xlink:href="#f"/></g><g transform="translate(-350 -309)"><use fill="#dd2c00" xlink:href="#g"/></g><g transform="translate(-350 -309)"><use fill="#fff" fill-opacity="0" stroke="#e89e00" stroke-linecap="round" stroke-miterlimit="50" stroke-width="2" xlink:href="#h"/></g><g transform="translate(-350 -309)"><use fill="#fff" fill-opacity="0" stroke="#279fd7" stroke-linecap="round" stroke-miterlimit="50" stroke-width="2" xlink:href="#i"/></g><g transform="translate(-350 -309)"><text fill="#1a2235" dominant-baseline="text-before-edge" font-family="Helvetica, Arial, sans-serif" font-size="16" font-style="none" font-weight="lighter" style="line-height:24px" transform="translate(380 411)"><tspan style="font-kerning:normal">01.07.2008</tspan></text></g><g transform="translate(-350 -309)"><text fill="#1a2235" dominant-baseline="text-before-edge" font-family="Helvetica, Arial, sans-serif" font-size="16" font-style="none" font-weight="lighter" style="line-height:24px" transform="translate(1341 411)"><tspan style="font-kerning:normal">30.06.2028</tspan></text></g><g transform="translate(-350 -309)"><text fill="#1a2235" dominant-baseline="text-before-edge" font-family="Helvetica, Arial, sans-serif" font-size="14" style="text-transform:uppercase;line-height:24px" transform="translate(950 409)"><tspan style="font-kerning:normal">Строк дії</tspan></text></g><g transform="translate(-350 -309)"><use fill="#e8aa00" xlink:href="#j"/></g><g transform="translate(-350 -309)"><text fill="#e89e00" dominant-baseline="text-before-edge" font-family="Helvetica, Arial, sans-serif" font-size="30" style="line-height:20px" transform="translate(953 345)"><tspan style="font-kerning:normal">2</tspan><tspan style="font-kerning:normal">0 </tspan><tspan style="font-kerning:normal">р.</tspan></text></g><g transform="translate(-350 -309)"><text fill="#1a2235" dominant-baseline="text-before-edge" font-family="Helvetica, Arial, sans-serif" font-size="14" style="text-transform:uppercase;line-height:24px" transform="translate(787 412)"><tspan style="font-kerning:normal">Строк сплати</tspan></text></g><g transform="translate(-350 -309)"><use fill="#279fd7" xlink:href="#k"/></g><g transform="translate(-350 -309)"><text fill="#279fd7" dominant-baseline="text-before-edge" font-family="Helvetica, Arial, sans-serif" font-size="30" style="line-height:20px" transform="translate(810 345)"><tspan style="font-kerning:normal">2</tspan><tspan style="font-kerning:normal">0 </tspan><tspan style="font-kerning:normal">р.</tspan></text></g></svg>