<svg xmlns="http://www.w3.org/2000/svg" xmlns:xlink="http://www.w3.org/1999/xlink" width="1091" height="151" viewBox="0 0 1091 151"><defs><path id="a" d="M349 1039V889h1091v150z"/><path id="b" d="M438 987s84.47-51 230-51 231 50 231 50"/><path id="c" d="M899 987s84.47-51 230-51 231 50 231 50"/><path id="d" d="M425 1001v-26h947v26zm8-13a5 5 0 1 0 10 0 5 5 0 0 0-10 0zm921 0a5 5 0 1 0 10 0 5 5 0 0 0-10 0z"/><path id="g" d="M418 986c3.87 0 7 .9 7 2s-3.13 2-7 2-7-.9-7-2 3.13-2 7-2z"/><path id="h" d="M418 987v-58"/><path id="i" d="M449 944.5L417 931v27z"/><path id="j" d="M1380 986c3.87 0 7 .9 7 2s-3.13 2-7 2-7-.9-7-2 3.13-2 7-2z"/><path id="k" d="M1380 987v-58"/><path id="l" d="M1411 944.5l-32-13.5v27z"/><path id="m" d="M438 988h922"/><path id="p" d="M438 983a5 5 0 1 1 0 10 5 5 0 0 1 0-10zm921 0a5 5 0 1 1 0 10 5 5 0 0 1 0-10z"/><mask id="f" width="2" height="2" x="-1" y="-1"><path fill="#fff" d="M349 889h1091v150H349z"/><use xlink:href="#a"/></mask><filter id="e" width="1111" height="171" x="339" y="879" filterUnits="userSpaceOnUse"><feOffset dy="1" in="SourceGraphic" result="FeOffset1422Out"/><feGaussianBlur in="FeOffset1422Out" result="FeGaussianBlur1423Out" stdDeviation="0 0"/></filter><clipPath id="n"><use fill="#fff" xlink:href="#b"/></clipPath><clipPath id="o"><use fill="#fff" xlink:href="#c"/></clipPath><clipPath id="q"><use fill="#fff" xlink:href="#d"/></clipPath></defs><g transform="translate(-349 -889)"><g filter="url(#e)"><use fill="none" stroke-width="0" mask="url(&quot;#f&quot;)" xlink:href="#a"/><use fill="#eee" xlink:href="#a"/></g><use fill="#fff" xlink:href="#a"/></g><g transform="translate(-349 -889)"><g opacity=".1"><use xlink:href="#g"/></g><use fill="#fff" fill-opacity="0" stroke="#aeb2bb" stroke-linecap="round" stroke-miterlimit="50" stroke-width="2" xlink:href="#h"/><g><use fill="#1d6bb2" xlink:href="#i"/></g></g><g transform="translate(-349 -889)"><g opacity=".1"><use xlink:href="#j"/></g><use fill="#fff" fill-opacity="0" stroke="#aeb2bb" stroke-linecap="round" stroke-miterlimit="50" stroke-width="2" xlink:href="#k"/><g><use fill="#dd2c00" xlink:href="#l"/></g></g><g transform="translate(-349 -889)"><use fill="#fff" fill-opacity="0" stroke="#eee" stroke-linecap="round" stroke-miterlimit="50" stroke-width="2" xlink:href="#m"/></g><g transform="translate(-349 -889)"><text fill="#1a2235" dominant-baseline="text-before-edge" font-family="Helvetica, Arial, sans-serif" font-size="16" font-style="none" font-weight="lighter" style="line-height:24px" transform="translate(414 1010)"><tspan style="font-kerning:normal">0</tspan></text></g><g transform="translate(-349 -889)"><text fill="#1a2235" dominant-baseline="text-before-edge" font-family="Helvetica, Arial, sans-serif" font-size="16" font-style="none" font-weight="lighter" style="line-height:24px" transform="translate(1376 1010)"><tspan style="font-kerning:normal">1</tspan></text></g><g transform="translate(-349 -889)"><use fill="#fff" fill-opacity="0" stroke="#279fd7" stroke-dasharray="4 2" stroke-miterlimit="50" stroke-width="2" clip-path="url(&quot;#n&quot;)" xlink:href="#b"/></g><g transform="translate(-349 -889)"><use fill="#fff" fill-opacity="0" stroke="#279fd7" stroke-dasharray="4 2" stroke-miterlimit="50" stroke-width="2" clip-path="url(&quot;#o&quot;)" xlink:href="#c"/></g><g transform="translate(-349 -889)"><text fill="#1a2235" dominant-baseline="text-before-edge" font-family="Helvetica, Arial, sans-serif" font-size="14" style="text-transform:uppercase;line-height:24px" transform="translate(848 1011)"><tspan style="font-kerning:normal">Р</tspan><tspan style="font-kerning:normal">аз в півроку</tspan></text></g><g transform="translate(-349 -889)"><text fill="#e8aa00" dominant-baseline="text-before-edge" font-family="Helvetica, Arial, sans-serif" font-size="30" style="line-height:20px" transform="translate(841 921)"><tspan style="font-kerning:normal">5</tspan><tspan style="font-kerning:normal"> 000 </tspan><tspan style="font-kerning:normal">UAH</tspan></text></g><g transform="translate(-349 -889)"><use fill="#e8aa00" xlink:href="#p"/><use fill="#fff" fill-opacity="0" stroke="#fafafa" stroke-miterlimit="50" stroke-width="16" clip-path="url(&quot;#q&quot;)" xlink:href="#p"/></g></svg>