<svg xmlns="http://www.w3.org/2000/svg" width="21" height="17" viewBox="0 0 21 17"><defs><style>.a{fill:#aeb2bb;}</style></defs><title>icon-twitter</title><path class="a" d="M0,15.13c.3,0,.7.1,1,.1a8.41,8.41,0,0,0,5.33-1.78,3.89,3.89,0,0,1-2.51-.89A5.07,5.07,0,0,1,2.3,10.48c.3,0,.6.1.81.1a3.79,3.79,0,0,0,1.1-.1A4.35,4.35,0,0,1,.69,6.22V6a4.24,4.24,0,0,0,1.91.5A5,5,0,0,1,1.2,5a6,6,0,0,1-.31-2A4.12,4.12,0,0,1,1.5.88,13.29,13.29,0,0,0,5.42,4a12.14,12.14,0,0,0,4.93,1.29,3.33,3.33,0,0,1-.1-1,4.09,4.09,0,0,1,1.3-3.07,4.22,4.22,0,0,1,3-1.29,4.12,4.12,0,0,1,3.11,1.39,8,8,0,0,0,2.72-1,4.46,4.46,0,0,1-1.91,2.37A8.73,8.73,0,0,0,21,2.07a8.65,8.65,0,0,1-2.11,2.18v.59a13.8,13.8,0,0,1-.5,3.46,9.76,9.76,0,0,1-1.51,3.27,13.08,13.08,0,0,1-2.41,2.77,11.47,11.47,0,0,1-3.42,2A12.39,12.39,0,0,1,6.73,17,12.11,12.11,0,0,1,0,15.13"/></svg>