<svg xmlns="http://www.w3.org/2000/svg" width="19" height="17" viewBox="0 0 19 17"><defs><style>.a{fill:none;stroke:#fff;stroke-linecap:round;stroke-linejoin:round;stroke-width:2px;}</style></defs><title>icon-umbrella</title><path class="a" d="M17.38,13.29c1.45-3.26.2-6.52-2.44-9.17l0,0C12.27,1.45,9,.19,5.77,1.59c-1.58.68-2.1,1.63-1.56,1.82A2.37,2.37,0,0,1,5.09,4a2.47,2.47,0,0,1,.6,1c.17.65.1,1.31.22,1.43s.79.06,1.44.23a2.32,2.32,0,0,1,1,.6,2.28,2.28,0,0,1,.6,1c.17.65.1,1.31.23,1.43l.06,0c.21.08.79,0,1.37.19a2.21,2.21,0,0,1,1,.6,2.27,2.27,0,0,1,.6,1c.18.65.11,1.31.23,1.43s.79.06,1.44.23a2.32,2.32,0,0,1,1.61,1.52C15.75,15.35,16.68,14.85,17.38,13.29Zm-15.77-.7a2,2,0,0,0-.06,2.78l0,0a2.08,2.08,0,0,0,2.89,0L10,10"/></svg>