<svg xmlns="http://www.w3.org/2000/svg" width="19.82" height="19.78" viewBox="0 0 19.82 19.78"><defs><style>.a{fill:none;stroke:#fff;stroke-linecap:round;stroke-linejoin:round;stroke-width:2px;}</style></defs><title>icon-smth</title><path class="a" d="M18.81,8.85S16.19,5.78,13.6,6.18a0,0,0,0,0,0,0C14,3.57,10.95.93,10.95.93S7.22,2.49,6.81,5.07h0C4.45,3.87,1,6,1,6s.33,4,2.65,5.22l0,0C1.78,13.07,2.72,17,2.72,17s3.93.94,5.78-.91v0c1.19,2.33,5.22,2.66,5.22,2.66s2.1-3.45.92-5.78h0C17.26,12.58,18.81,8.85,18.81,8.85Z"/></svg>