<svg xmlns="http://www.w3.org/2000/svg" width="18" height="21" viewBox="0 0 18 21"><defs><style>.a{fill:none;stroke:#fff;stroke-linecap:round;stroke-linejoin:round;stroke-width:2px;}</style></defs><title>icon-shield</title><path class="a" d="M16.93,5a3.1,3.1,0,0,1-.43,0A3.5,3.5,0,0,1,13,1.5a1.21,1.21,0,0,1,0-.19A19.91,19.91,0,0,0,9,1a19.91,19.91,0,0,0-4,.31A1.21,1.21,0,0,1,5,1.5,3.5,3.5,0,0,1,1.5,5a3.1,3.1,0,0,1-.43,0A8.21,8.21,0,0,0,1,6c0,4.42,3.58,14,8,14s8-9.58,8-14A8.21,8.21,0,0,0,16.93,5Z"/></svg>