<?xml version="1.0"?>
<!--Icons from directory ""-->
<svg xmlns="http://www.w3.org/2000/svg" width="163" height="1248" viewBox="0 0 163 1248"><svg width="9" viewBox="0 0 9 16" height="16" id="icon-arrow-left" y="0"><defs><style>.a{fill:none;stroke:#aeb2bb;stroke-linecap:round;stroke-linejoin:round;stroke-width:2px;}</style></defs><title>icon-arrow-left</title><path class="a" d="m8 15-7-7 7-7"/></svg><svg width="9" viewBox="0 0 9 16" height="16" id="icon-arrow-right" y="16"><defs><style>.a{fill:none;stroke:#4c9d11;stroke-linecap:round;stroke-linejoin:round;stroke-width:2px;}</style></defs><title>icon-arrow-right</title><path class="a" d="m1 1 7 7-7 7"/></svg><svg width="27" viewBox="0 0 26.72 24.56" height="25" id="icon-attach" y="32"><defs><style>.a{fill:none;stroke:#aeb2bb;stroke-linecap:round;stroke-linejoin:round;stroke-width:2px;}</style></defs><title>icon-attach</title><path class="a" d="m9.39 13.09l4.92-4.92a3 3 0 1 1 4.24 4.24l-9 9a5 5 0 0 1 -7.07 -7.07l11.3-11.34a7 7 0 1 1 9.9 9.9l-10.61 10.64"/></svg><svg xmlns:xlink="http://www.w3.org/1999/xlink" viewBox="0 0 13 11" width="13" height="11" id="icon-calendar-orange" y="57"><defs><path id="icon-calendar-orange-a" d="m884 480c0-1.1 0.9-2 2-2h9a2 2 0 0 1 2 2v7a2 2 0 0 1 -2 2h-9a2 2 0 0 1 -2 -2zm1 6c0 1.1 0.9 2 2 2h7a2 2 0 0 0 2 -2v-5h-11zm2-1v-1h1v-1h1v1h3v-1h1v1h1v1h-1v1h-1v-1h-3v1h-1v-1z"/></defs><g transform="translate(-884 -478)"><use xlink:href="#icon-calendar-orange-a" fill="#f3c216"/></g></svg><svg width="13" viewBox="0 0 13 11" height="11" id="icon-calendar" y="68"><defs><style>.a{fill:#aeb2bb;}</style></defs><title>icon-calendar</title><path class="a" d="m11 11h-9a2 2 0 0 1 -2 -2v-7a2 2 0 0 1 2 -2h9a2 2 0 0 1 2 2v7a2 2 0 0 1 -2 2zm1-8h-11v5a2 2 0 0 0 2 2h7a2 2 0 0 0 2 -2zm-3 5h-1v-1h-3v1h-1v-1h-1v-1h1v-1h1v1h3v-1h1v1h1v1h-1z"/></svg><svg width="12" viewBox="0 0 12 14" height="14" id="icon-collapse-block-left" y="79"><defs><style>.a{fill:none;stroke:#aeb2bb;stroke-linecap:round;stroke-linejoin:round;stroke-width:2px;}</style></defs><title>icon-collapse-block-left</title><path class="a" d="m11 12-5-5l5-5m-10-1v12"/></svg><svg width="12" viewBox="0 0 12 14" height="14" id="icon-collapse-block-right" y="93"><defs><style>.a{fill:none;stroke:#aeb2bb;stroke-linecap:round;stroke-linejoin:round;stroke-width:2px;}</style></defs><title>icon-collapse-block-right</title><path class="a" d="m1 2 5 5-5 5m10 1v-12"/></svg><svg width="39" viewBox="0 0 39 53" height="53" id="icon-doc" y="107"><defs><style>.a{fill:#fafafa;stroke:#d0d3da;}.b{fill:#d0d3da;}.c{fill:#1d6bb2;}.d{fill:#eab515;}</style></defs><title>icon-doc</title><path class="a" d="m36.5 52.5h-34a2 2 0 0 1 -2 -2v-48a2 2 0 0 1 2 -2h26v8a2 2 0 0 0 2 2h8v40a2 2 0 0 1 -2 2z"/><path class="b" d="m29 0 10 10h-10z"/><path class="b" d="m11 17h16a1 1 0 0 1 1 1v3a1 1 0 0 1 -1 1h-16a1 1 0 0 1 -1 -1v-3a1 1 0 0 1 1 -1zm-5 10h26a1 1 0 0 1 0 2h-26a1 1 0 0 1 0 -2zm0 4h26a1 1 0 0 1 0 2h-26a1 1 0 0 1 0 -2zm0 8h8a1 1 0 0 1 0 2h-8a1 1 0 0 1 0 -2zm18 0h8a1 1 0 0 1 0 2h-8a1 1 0 0 1 0 -2z"/><path class="c" d="m8.5 38.5a1.5 1.5 0 1 0 1.5 1.5 1.49 1.49 0 0 0 -1.51 -1.5za1.5 1.5 0 1 0 1.5 1.5 1.49 1.49 0 0 0 -1.51 -1.5zm0-2a3.5 3.5 0 1 0 3.5 3.5 3.5 3.5 0 0 0 -3.5 -3.5zm0 6a2.5 2.5 0 1 1 2.5 -2.5 2.5 2.5 0 0 1 -2.5 2.5zm0-4a1.5 1.5 0 1 0 1.5 1.5 1.49 1.49 0 0 0 -1.51 -1.5z"/><path class="d" d="m29.5 38.5a1.5 1.5 0 1 0 1.5 1.5 1.49 1.49 0 0 0 -1.51 -1.5za1.5 1.5 0 1 0 1.5 1.5 1.49 1.49 0 0 0 -1.51 -1.5zm0-2a3.5 3.5 0 1 0 3.5 3.5 3.5 3.5 0 0 0 -3.5 -3.5zm0 6a2.5 2.5 0 1 1 2.5 -2.5 2.5 2.5 0 0 1 -2.5 2.5zm0-4a1.5 1.5 0 1 0 1.5 1.5 1.49 1.49 0 0 0 -1.51 -1.5z"/></svg><svg width="26" viewBox="0 0 26 34" height="34" id="icon-doc2" y="160"><defs><style>.a{fill:#fafafa;stroke:#d0d3da;}.b{fill:#d0d3da;}</style></defs><title>icon-doc2</title><path class="a" d="m19.5 0.5v4a2 2 0 0 0 2 2h4v25a2 2 0 0 1 -2 2h-21a2 2 0 0 1 -2 -2v-29a2 2 0 0 1 2 -2z"/><path class="b" d="m20 0l6 6h-6z"/><path class="b" d="m10.86 9h4.29a0.94 0.94 0 0 1 0.85 1v3a0.94 0.94 0 0 1 -0.86 1h-4.28a0.94 0.94 0 0 1 -0.86 -1v-3a0.94 0.94 0 0 1 0.86 -1zm-4.36 9h13a1 1 0 0 1 1 1 1 1 0 0 1 -1 1h-13a1 1 0 0 1 -1 -1 1 1 0 0 1 1 -1zm0 5h2a1 1 0 0 1 0 2h-2a1 1 0 0 1 0 -2zm11 0h2a1 1 0 0 1 0 2h-2a1 1 0 0 1 0 -2z"/></svg><svg width="20" viewBox="0 0 20 16" height="16" id="icon-download" y="194"><defs><style>.a{fill:none;stroke:#aeb2bb;stroke-linecap:round;stroke-linejoin:round;stroke-width:2px;}</style></defs><title>icon-download</title><path class="a" d="m19 8v5a2 2 0 0 1 -2 2h-14a2 2 0 0 1 -2 -2v-5m9 1v-8m-4 5l4 3 4-3"/></svg><svg width="23" viewBox="0 0 23.19 23.22" height="23" id="icon-email" y="210"><defs><style>.a{fill:#424a60;}</style></defs><title>icon-email</title><path class="a" d="m11.59 15a3.42 3.42 0 1 0 -2.41 -1 3.29 3.29 0 0 0 2.41 1zm10.47-8.44a11.17 11.17 0 0 1 1.13 4.44 11.65 11.65 0 0 1 -0.63 4.49 12 12 0 0 1 -0.87 1.89l-0.69 1.13a0.21 0.21 0 0 1 -0.26 0.13h-0.07l-4.3-2.54a6.43 6.43 0 0 1 -2.47 1.65 6.64 6.64 0 0 1 -3.08 0.39 6.39 6.39 0 0 1 -3.82 -1.93 6.31 6.31 0 0 1 -1.87 -3.9 6.73 6.73 0 0 1 0.37 -3 6.64 6.64 0 0 1 1.5 -2.4 6.27 6.27 0 0 1 2.5 -1.5 6.49 6.49 0 0 1 3 -0.3 6.34 6.34 0 0 1 3.62 1.79 6.5 6.5 0 0 1 1.78 6.42l1.73 1a8.49 8.49 0 0 0 -11.71 -10.37 8.36 8.36 0 0 0 -3.14 2.57 8.62 8.62 0 0 0 -1.6 3.8 8.11 8.11 0 0 0 0.2 3.49 8.49 8.49 0 0 0 10.72 5.88 0.22 0.22 0 0 1 0.29 0.12l0.85 2.5a0.22 0.22 0 0 1 -0.1 0.3 11.53 11.53 0 0 1 -3.53 0.56 11.34 11.34 0 0 1 -3.84 -0.67 11.53 11.53 0 0 1 -6.62 -5.92 11.72 11.72 0 0 1 -1.15 -4.28 11.47 11.47 0 0 1 0.62 -4.56 11.69 11.69 0 0 1 2.3 -3.9 11.82 11.82 0 0 1 3.63 -2.73 11.59 11.59 0 0 1 15.45 5.44z"/></svg><svg width="38" viewBox="0 0 38 62" height="62" id="icon-flag-blue" y="233"><defs><style>.a{opacity:0.1;isolation:isolate;}.b{fill:none;stroke:#aeb2bb;stroke-linecap:round;stroke-width:2px;}.c{fill:#1d6bb2;}</style></defs><title>icon-flag-blue</title><ellipse cy="60" cx="7" rx="7" class="a" ry="2"/><path class="b" d="m7 59v-58"/><path class="c" d="m38 16.5-32-13.5v27z"/></svg><svg width="38" viewBox="0 0 38 62" height="62" id="icon-flag-red" y="295"><defs><style>.a{opacity:0.1;isolation:isolate;}.b{fill:none;stroke:#aeb2bb;stroke-linecap:round;stroke-width:2px;}.c{fill:#dd2c00;}</style></defs><title>icon-flag-red</title><ellipse cy="60" cx="7" rx="7" class="a" ry="2"/><path class="b" d="m7 59v-58"/><path class="c" d="m38 16.5-32-13.5v27z"/></svg><svg width="16" viewBox="0 0 16 16" height="16" id="icon-flag-ua" y="357"><defs><style>.a{fill:gold;}.b{fill:#0057b8;}</style></defs><title>icon-flag-ua</title><path class="a" d="m16 8a8 8 0 0 1 -16 0z"/><path class="b" d="m16 8h-16a8 8 0 0 1 16 0z"/></svg><svg width="21" viewBox="0 0 21 13" height="13" id="icon-hide" y="373"><defs><style>.a{fill:none;stroke:#aeb2bb;stroke-linecap:round;stroke-linejoin:round;stroke-width:2px;}.b{fill:#aeb2bb;}</style></defs><title>icon-hide</title><path class="a" d="m10.5 2c5.25 0 9.5 4.5 9.5 4.5s-4.25 4.5-9.5 4.5-9.5-4.5-9.5-4.5 4.25-4.5 9.5-4.5z"/><circle cy="6.5" cx="10.5" r="2.5" class="b"/><path class="a" d="m1 12 19-11"/></svg><svg width="43" viewBox="0 0 43.25 28.28" height="28" id="icon-lemons" y="386"><defs><style>.a{fill:#f3c216;}.b{fill:#42890f;}.c{fill:#4c9d11;}</style></defs><title>icon-lemons</title><path class="a" d="m22.21 5.88c-5.68-5.64-13.47-7.18-18.26-3.88a1.9 1.9 0 1 0 -2.59 2.75c-2.83 4.78-1.18 12.17 4.28 17.6 3.88 3.85 8.74 5.79 13 5.59a4.32 4.32 0 0 1 -0.11 -1c-2.83-4-2.77-10 0.33-15.33a17.47 17.47 0 0 1 4.14 -4.85c-0.22-0.3-0.5-0.59-0.79-0.88zm13.16 2.45a1.44 1.44 0 0 0 -0.43 -1.93 1.48 1.48 0 0 0 -2 0.67c-3.8-1.07-8.62 1.44-11.37 6.16s-2.57 10.11 0.32 12.88a1.36 1.36 0 1 0 2.29 1.42c3.91 1.39 9-1.1 11.87-6s2.49-10.53-0.68-13.2z"/><path class="b" d="m30.95 0s3 1.3 4 3.68a6.38 6.38 0 0 1 -0.48 5s-3-1.3-4-3.68a6.38 6.38 0 0 1 0.48 -5z"/><path class="c" d="m43.26 7.63a6.76 6.76 0 0 1 -4.51 2.37c-2.64 0.06-5-2.14-5-2.14a6.76 6.76 0 0 1 4.51 -2.36c2.59-0.07 5 2.13 5 2.13z"/></svg><svg width="30" viewBox="0 0 30 28.06" height="28" id="icon-link" y="414"><defs><style>.a,.b{fill:none;stroke:#4c9d11;stroke-width:2px;}.b{stroke-linecap:round;stroke-linejoin:round;}</style></defs><title>icon-link</title><path class="a" d="m3.05 28a17 17 0 0 1 16.95 -16h1"/><path class="a" d="m17 7l5 5-5 6"/><path class="b" d="m1 16v-13a2 2 0 0 1 2 -2h24a2 2 0 0 1 2 2v19a2 2 0 0 1 -2 2h-7"/></svg><svg width="21" viewBox="0 0 21 31" height="31" id="icon-location" y="442"><defs><style>.a{fill:#424a60;}.b{fill:#ffc000;}</style></defs><title>icon-location</title><path class="a" d="m10.5 0a10.5 10.5 0 0 1 10.5 10.5c0 5.8-4.7 20.5-10.5 20.5s-10.5-14.7-10.5-20.5a10.5 10.5 0 0 1 10.5 -10.5z"/><circle cy="10.5" cx="10.5" r="3.5" class="b"/></svg><svg xmlns:xlink="http://www.w3.org/1999/xlink" viewBox="0 0 33 39" width="33" height="39" id="icon-lock" y="473"><defs><path id="icon-lock-a" d="m1540 355c0-1.1 0.9-2 2-2h9a2 2 0 0 1 2 2v9a2 2 0 0 1 -2 2h-9a2 2 0 0 1 -2 -2z"/><path id="icon-lock-b" d="m1543 350.5c0-1.4 1.13-2.53 2.54-2.53h1.93c1.4 0 2.53 1.13 2.53 2.53v2.54h-7z"/><path id="icon-lock-c" d="m1546.5 359a0.5 0.5 0 1 1 0 1 0.5 0.5 0 0 1 0 -1z"/></defs><g transform="translate(-1530 -341)"><use stroke-linejoin="round" fill-opacity="0" xlink:href="#icon-lock-a" stroke="#4c9d11" stroke-linecap="round" stroke-miterlimit="50" stroke-width="2" fill="#fff"/></g><g transform="translate(-1530 -341)"><use stroke-linejoin="round" fill-opacity="0" xlink:href="#icon-lock-b" stroke="#4c9d11" stroke-linecap="round" stroke-miterlimit="50" stroke-width="2" fill="#fff"/></g><g transform="translate(-1530 -341)"><use stroke-linejoin="round" fill-opacity="0" xlink:href="#icon-lock-c" stroke="#4c9d11" stroke-linecap="round" stroke-miterlimit="50" stroke-width="2" fill="#fff"/></g></svg><svg xmlns:xlink="http://www.w3.org/1999/xlink" viewBox="0 0 47 41" width="47" height="41" id="icon-market-orange" y="512"><defs><path id="icon-market-orange-a" d="m1688.8 474c1.12 0 2.03 0.9 2.03 2s-0.9 2-2.03 2c-1.12 0-2.03-0.9-2.03-2s0.91-2 2.03-2zm-8.17 0c1.13 0 2.05 0.9 2.05 2s-0.92 2-2.05 2-2.05-0.9-2.05-2 0.92-2 2.05-2z"/><path id="icon-market-orange-b" d="m1699 459h-4.08l-5.09 12h-10.2l-4.63-9h11.8"/><clipPath id="icon-market-orange-c"><use xlink:href="#icon-market-orange-a" fill="#fff"/></clipPath></defs><g transform="translate(-1663 -451)"><use stroke-linejoin="round" fill-opacity="0" xlink:href="#icon-market-orange-b" stroke="#4c9d11" stroke-linecap="round" stroke-miterlimit="50" stroke-width="2" fill="#fff"/><use xlink:href="#icon-market-orange-a" fill-opacity="0" clip-path="url(&quot;#icon-market-orange-c&quot;)" stroke="#4c9d11" stroke-miterlimit="50" stroke-width="4" fill="#fff"/></g></svg><svg xmlns:xlink="http://www.w3.org/1999/xlink" viewBox="0 0 47 35" width="47" height="35" id="icon-market-white" y="553"><defs><path id="icon-market-white-a" d="m1699 552h-4.08l-5.09 12h-10.2l-4.63-9h11.8"/></defs><g transform="translate(-1663 -544)"><use stroke-linejoin="round" fill-opacity="0" xlink:href="#icon-market-white-a" stroke="#4c9d11" stroke-linecap="round" stroke-miterlimit="50" stroke-width="2" fill="#fff"/></g></svg><svg xmlns:xlink="http://www.w3.org/1999/xlink" viewBox="0 0 47 41" width="47" height="41" id="icon-market" y="588"><defs><path id="icon-market-a" d="m1688.8 382c1.12 0 2.03 0.9 2.03 2s-0.9 2-2.03 2c-1.12 0-2.03-0.9-2.03-2s0.91-2 2.03-2zm-8.17 0c1.13 0 2.05 0.9 2.05 2s-0.92 2-2.05 2-2.05-0.9-2.05-2 0.92-2 2.05-2z"/><path id="icon-market-b" d="m1699 367h-4.08l-5.09 12h-10.2l-4.63-9h11.8"/><clipPath id="icon-market-c"><use xlink:href="#icon-market-a" fill="#fff"/></clipPath></defs><g transform="translate(-1663 -359)"><use stroke-linejoin="round" fill-opacity="0" xlink:href="#icon-market-b" stroke="#4c9d11" stroke-linecap="round" stroke-miterlimit="50" stroke-width="2" fill="#fff"/><use xlink:href="#icon-market-a" fill-opacity="0" clip-path="url(&quot;#icon-market-c&quot;)" stroke="#4c9d11" stroke-miterlimit="50" stroke-width="4" fill="#fff"/></g></svg><svg width="22" viewBox="0 0 22 36" height="36" id="icon-mobile" y="629"><defs><style>.a{fill:#d0d3da;}.b{fill:#424a60;}.c{fill:none;stroke:#fff;opacity:0.6;isolation:isolate;}</style></defs><title>icon-mobile</title><path class="a" d="m2 0h17a2 2 0 0 1 2 2v32a2 2 0 0 1 -2 2h-17a2 2 0 0 1 -2 -2v-32a2 2 0 0 1 2 -2zm18 5h1a1 1 0 0 1 1 1v3a1 1 0 0 1 -1 1h-1z"/><rect y="3" width="21" class="b" height="27"/><path class="b" d="m9 32h3a1 1 0 0 1 1 1 1 1 0 0 1 -1 1h-3a1 1 0 0 1 -1 -1 1 1 0 0 1 1 -1z"/><path class="c" d="m14 5l5 5"/><path class="c" d="m9 5 10 10"/></svg><svg width="22" viewBox="0 0 22 36" height="36" id="icon-mobile2" y="665"><defs><style>.a{fill:#d0d3da;}.b{fill:#424a60;}.c{fill:#ffc000;}</style></defs><title>icon-mobile2</title><path class="a" d="m2 0h17a2 2 0 0 1 2 2v32a2 2 0 0 1 -2 2h-17a2 2 0 0 1 -2 -2v-32a2 2 0 0 1 2 -2zm18 5h1a1 1 0 0 1 1 1v3a1 1 0 0 1 -1 1h-1z"/><rect y="3" width="21" class="b" height="27"/><path class="b" d="m9 32h3a1 1 0 0 1 1 1 1 1 0 0 1 -1 1h-3a1 1 0 0 1 -1 -1 1 1 0 0 1 1 -1z"/><path class="c" d="m15 24h-9a1 1 0 0 1 -1 -1v-2c0-1.66 2.46-3 5.5-3s5.5 1.34 5.5 3v2a1 1 0 0 1 -1 1zm-4.5-8a2.5 2.5 0 1 1 2.5 -2.5 2.5 2.5 0 0 1 -2.5 2.5z"/></svg><svg width="11" viewBox="0 0 11 20" height="20" id="icon-next" y="701"><defs><style>.a{fill:none;stroke:#aeb2bb;stroke-linecap:round;stroke-linejoin:round;stroke-width:2px;}</style></defs><title>icon-next</title><path class="a" d="m1 1l9 9-9 9"/></svg><svg width="10" viewBox="0 0 10.03 12" height="12" id="icon-ok" y="721"><defs><style>.a{fill:none;stroke:#4c9d11;stroke-linecap:round;stroke-linejoin:round;stroke-width:2px;}</style></defs><title>icon-ok</title><path class="a" d="m1 7.67 3 3.33 5-10"/></svg><svg xmlns:xlink="http://www.w3.org/1999/xlink" viewBox="0 0 11 11" width="11" height="11" id="icon-orange" y="733"><defs><path id="icon-orange-a" d="m1041 485a1 1 0 0 1 1 -1h1a1 1 0 0 1 1 1v4h-3zm4-3a1 1 0 0 1 1 -1h1a1 1 0 0 1 1 1v7h-3zm4-3a1 1 0 0 1 1 -1h1a1 1 0 0 1 1 1v10h-3z"/></defs><g transform="translate(-1041 -478)"><use xlink:href="#icon-orange-a" fill="#f3c216"/></g></svg><svg width="15" viewBox="0 0 15 20.03" height="20" id="icon-pass" y="744"><defs><style>.a{fill:none;stroke:#4c9d11;stroke-linecap:round;stroke-linejoin:round;stroke-width:2px;}</style></defs><title>icon-pass</title><path class="a" d="m3 6h9a2 2 0 0 1 2 2v9a2 2 0 0 1 -2 2h-9a2 2 0 0 1 -2 -2v-9a2 2 0 0 1 2 -2zm4.5-5a3.5 3.5 0 0 1 3.5 3.5v1.57h-7v-1.57a3.5 3.5 0 0 1 3.5 -3.5zm0 11a0.5 0.5 0 1 1 -0.5 0.5 0.5 0.5 0 0 1 0.5 -0.5z"/></svg><svg width="21" viewBox="0 0 21 21.97" height="22" id="icon-play" y="764"><defs><style>.a{fill:none;stroke:#4c9d11;stroke-linecap:round;stroke-linejoin:round;stroke-width:2px;}</style></defs><title>icon-play</title><path class="a" d="m1 1v20l19-10.26z"/></svg><svg width="8" viewBox="0 0 8 4" height="4" id="icon-select-sm" y="786"><defs><style>.a{fill:#1d6bb2;}</style></defs><title>icon-select-sm</title><path class="a" d="m8 0-4 4-4-4z"/></svg><svg width="12" viewBox="0 0 12 6" height="6" id="icon-select" y="790"><defs><style>.a{fill:#1a2235;}</style></defs><title>icon-select</title><path class="a" d="m12 0-6 6-6-6z"/></svg><svg width="12" viewBox="0 0 11.97 19.97" height="20" id="icon-send" y="796"><defs><style>.a{fill:none;stroke:#1d6bb2;stroke-linecap:round;stroke-linejoin:round;stroke-width:4px;}</style></defs><title>icon-send</title><path class="a" d="m2 2l8 8-8 8"/></svg><svg width="9" viewBox="0 0 9 11" height="11" id="icon-shield" y="816"><defs><style>.a{fill:#aeb2bb;}</style></defs><title>icon-shield</title><path class="a" d="m8.69 2.9a4.49 4.49 0 0 1 0.31 1.6c0 2.5-2 6.5-4.5 6.5s-4.5-4-4.5-6.5a4.49 4.49 0 0 1 0.31 -1.6 3.5 3.5 0 0 0 2.59 -2.59 4.32 4.32 0 0 1 3.2 0 3.5 3.5 0 0 0 2.59 2.59z"/></svg><svg width="21" viewBox="0 0 21 11" height="11" id="icon-show" y="827"><defs><style>.a{fill:none;stroke:#aeb2bb;stroke-linecap:round;stroke-linejoin:round;stroke-width:2px;}.b{fill:#aeb2bb;}</style></defs><title>icon-show</title><path class="a" d="m10.5 1c5.25 0 9.5 4.5 9.5 4.5s-4.25 4.5-9.5 4.5-9.5-4.5-9.5-4.5 4.25-4.5 9.5-4.5z"/><circle cy="5.5" cx="10.5" r="2.5" class="b"/></svg><svg width="163" viewBox="0 0 163.01 167.19" height="167" id="icon-triangle-part-left" y="838"><defs><style>.a{fill:none;stroke:#ffffff;stroke-linecap:round;stroke-miterlimit:10;stroke-width:3px;}</style></defs><title>triangle-part-left</title><polyline points="24.13 139.12 5 139.12 82.98 5.13 89.94 17.57" class="a"/></svg><svg width="163" viewBox="0 0 163.01 167.19" height="167" id="icon-triangle-part-right" y="1005"><defs><style>.a{fill:none;stroke:#ffffff;stroke-linecap:round;stroke-miterlimit:10;stroke-width:3px;}</style></defs><title>triangle-part-right</title><polyline points="149.03 123.09 158 139.12 138.87 139.12" class="a"/></svg><svg width="25" viewBox="0 0 25 31.03" height="31" id="icon-user" y="1172"><defs><style>.a{fill:#424a60;}.b{fill:#fff;}.c{fill:#ffd7ba;}.d{fill:#903e0d;}</style></defs><title>icon-user</title><path class="a" d="m2.5 31a2.55 2.55 0 0 1 -2.5 -2.57v-5.52c0-2.75 4.72-4.91 12.5-4.91s12.5 2.16 12.5 4.91v5.52a2.55 2.55 0 0 1 -2.5 2.57z"/><path class="b" d="m10 18h4l-2 5z"/><path class="c" d="m12 15c-3.32 0-6-3.5-6-9s2.69-4.19 6-4.19 6-1.28 6 4.19-2.67 9-6 9z"/><path class="d" d="m18 4.61c-1.25-6.66-9.06-4.1-9.06-4.1a1 1 0 0 0 -0.72 0.64c-4.4 1.28-2 7.44-2 6.87a3.83 3.83 0 0 1 2.38 -4.54s3.62 1.63 6.8-0.13c1 0 2.31 1.87 2.54 4.21a9.07 9.07 0 0 0 0.06 -2.95z"/></svg><svg width="12" viewBox="0 0 12 12" height="12" id="icons-edit" y="1203"><defs><style>.a{fill:#aeb2bb;}</style></defs><title>icons-edit</title><path class="a" d="m7.45 2 2.44 2.45-6.18 6.21-2.44-2.46zm4.29-0.59l-1.09-1.11a1.08 1.08 0 0 0 -1.52 0l-1 1 2.39 2.5 1.22-1.22a0.85 0.85 0 0 0 0 -1.18zm-11.74 10.25a0.28 0.28 0 0 0 0.21 0.34h0.13l2.72-0.66-2.44-2.47z"/></svg><svg xmlns:xlink="http://www.w3.org/1999/xlink" viewBox="0 0 11 11" width="11" height="11" id="status-ruptured" y="1215"><defs><path id="status-ruptured-a" d="m1203.5 571a5.5 5.5 0 1 1 0 11 5.5 5.5 0 0 1 0 -11z"/></defs><g transform="translate(-1198 -571)"><use xlink:href="#status-ruptured-a" fill="#dd2c00"/></g></svg><svg xmlns:xlink="http://www.w3.org/1999/xlink" viewBox="0 0 11 11" width="11" height="11" id="status-valid" y="1226"><defs><path id="status-valid-a" d="m1203.5 386a5.5 5.5 0 1 1 0 11 5.5 5.5 0 0 1 0 -11z"/></defs><g transform="translate(-1198 -386)"><use xlink:href="#status-valid-a" fill="#4c9c11"/></g></svg><svg xmlns:xlink="http://www.w3.org/1999/xlink" viewBox="0 0 11 11" width="11" height="11" id="status_payment" y="1237"><defs><path id="status_payment-a" d="m1203.5 293a5.5 5.5 0 1 1 0 11 5.5 5.5 0 0 1 0 -11z"/></defs><g transform="translate(-1198 -293)"><use xlink:href="#status_payment-a" fill="#f5b800"/></g></svg></svg>
