<svg xmlns="http://www.w3.org/2000/svg" width="43.25" height="28.28" viewBox="0 0 43.25 28.28"><defs><style>.a{fill:#f3c216;}.b{fill:#42890f;}.c{fill:#4c9d11;}</style></defs><title>icon-lemons</title><path class="a" d="M22.21,5.88C16.53.24,8.74-1.3,3.95,2A1.9,1.9,0,1,0,1.36,4.75C-1.47,9.53.18,16.92,5.64,22.35c3.88,3.85,8.74,5.79,13,5.59a4.32,4.32,0,0,1-.11-1c-2.83-4-2.77-10,.33-15.33A17.47,17.47,0,0,1,23,6.76C22.78,6.46,22.5,6.17,22.21,5.88ZM35.37,8.33a1.44,1.44,0,0,0-.43-1.93,1.48,1.48,0,0,0-2,.67C29.14,6,24.32,8.51,21.57,13.23S19,23.34,21.89,26.11a1.36,1.36,0,1,0,2.29,1.42c3.91,1.39,9-1.1,11.87-6S38.54,11,35.37,8.33Z"/><path class="b" d="M30.95,0s3,1.3,4,3.68a6.38,6.38,0,0,1-.48,5s-3-1.3-4-3.68A6.38,6.38,0,0,1,30.95,0Z"/><path class="c" d="M43.26,7.63A6.76,6.76,0,0,1,38.75,10c-2.64.06-5-2.14-5-2.14a6.76,6.76,0,0,1,4.51-2.36C40.85,5.43,43.26,7.63,43.26,7.63Z"/></svg>