<svg xmlns="http://www.w3.org/2000/svg" width="39" height="53" viewBox="0 0 39 53"><defs><style>.a{fill:#fafafa;stroke:#d0d3da;}.b{fill:#d0d3da;}.c{fill:#1d6bb2;}.d{fill:#eab515;}</style></defs><title>icon-doc</title><path class="a" d="M36.5,52.5H2.5a2,2,0,0,1-2-2V2.5a2,2,0,0,1,2-2h26v8a2,2,0,0,0,2,2h8v40A2,2,0,0,1,36.5,52.5Z"/><path class="b" d="M29,0,39,10H29Z"/><path class="b" d="M11,17H27a1,1,0,0,1,1,1v3a1,1,0,0,1-1,1H11a1,1,0,0,1-1-1V18A1,1,0,0,1,11,17ZM6,27H32a1,1,0,0,1,0,2H6a1,1,0,0,1,0-2Zm0,4H32a1,1,0,0,1,0,2H6a1,1,0,0,1,0-2Zm0,8h8a1,1,0,0,1,0,2H6a1,1,0,0,1,0-2Zm18,0h8a1,1,0,0,1,0,2H24a1,1,0,0,1,0-2Z"/><path class="c" d="M8.5,38.5h0A1.5,1.5,0,1,0,10,40,1.49,1.49,0,0,0,8.49,38.5Zm0,0h0A1.5,1.5,0,1,0,10,40,1.49,1.49,0,0,0,8.49,38.5Zm0-2A3.5,3.5,0,1,0,12,40,3.5,3.5,0,0,0,8.5,36.5Zm0,6A2.5,2.5,0,1,1,11,40,2.5,2.5,0,0,1,8.5,42.5Zm0-4h0A1.5,1.5,0,1,0,10,40,1.49,1.49,0,0,0,8.49,38.5Z"/><path class="d" d="M29.5,38.5h0A1.5,1.5,0,1,0,31,40,1.49,1.49,0,0,0,29.49,38.5Zm0,0h0A1.5,1.5,0,1,0,31,40,1.49,1.49,0,0,0,29.49,38.5Zm0-2A3.5,3.5,0,1,0,33,40,3.5,3.5,0,0,0,29.5,36.5Zm0,6A2.5,2.5,0,1,1,32,40,2.5,2.5,0,0,1,29.5,42.5Zm0-4h0A1.5,1.5,0,1,0,31,40,1.49,1.49,0,0,0,29.49,38.5Z"/></svg>